<svg xmlns="http://www.w3.org/2000/svg" width="96" height="96" viewBox="0 0 96 96"><path d="M62.205,80.439a3.75,3.75,0,0,1-.054,5.3A36.273,36.273,0,0,1,36.562,96,36.447,36.447,0,0,1,10.72,85.4,36.043,36.043,0,0,1,0,59.626v-1C0,45.953,10.586,33.8,19.926,23.086,26.262,15.816,32.812,8.3,32.812,3.751a3.75,3.75,0,1,1,7.5,0c0,4.844,6.645,12.4,13.069,19.712,1.169,1.329,2.377,2.7,3.572,4.089a3.75,3.75,0,1,1-5.679,4.9c-1.171-1.358-2.368-2.719-3.525-4.036-4.4-5.008-8.475-9.641-11.252-14.071-2.733,4.278-6.669,8.795-10.917,13.669C17.106,37.739,7.5,48.762,7.5,58.621v1A29.2,29.2,0,0,0,56.9,80.385a3.75,3.75,0,0,1,5.3.054ZM92.25,66.564c-1.446,0-3.408-1.356-5.383-3.721a8.742,8.742,0,0,0-13.233,0c-1.975,2.365-3.937,3.721-5.383,3.721s-3.408-1.356-5.383-3.721a8.742,8.742,0,0,0-13.233,0c-1.975,2.365-3.937,3.721-5.383,3.721s-3.408-1.356-5.383-3.721a8.742,8.742,0,0,0-13.233,0c-1.975,2.365-3.937,3.721-5.383,3.721a3.75,3.75,0,0,0,0,7.5c3.837,0,7.585-2.158,11.139-6.414a1.269,1.269,0,0,1,1.721,0c3.554,4.255,7.3,6.413,11.139,6.413s7.585-2.158,11.139-6.414a1.269,1.269,0,0,1,1.721,0c3.554,4.255,7.3,6.413,11.139,6.413s7.585-2.158,11.139-6.414a1.269,1.269,0,0,1,1.721,0c3.554,4.255,7.3,6.413,11.139,6.413a3.75,3.75,0,0,0,0-7.5ZM49.633,44.092c-1.975,2.365-3.937,3.721-5.383,3.721a3.75,3.75,0,0,0,0,7.5c3.837,0,7.585-2.158,11.139-6.414a1.269,1.269,0,0,1,1.721,0c3.554,4.255,7.3,6.413,11.139,6.413s7.585-2.158,11.139-6.414a1.269,1.269,0,0,1,1.721,0c3.554,4.255,7.3,6.413,11.139,6.413a3.75,3.75,0,0,0,0-7.5c-1.446,0-3.408-1.356-5.383-3.721a8.742,8.742,0,0,0-13.233,0c-1.975,2.365-3.937,3.721-5.383,3.721s-3.408-1.356-5.383-3.721a8.742,8.742,0,0,0-13.233,0Zm0,0" transform="translate(0 -0.001)" fill="#fff"/></svg>