<svg xmlns="http://www.w3.org/2000/svg" width="48" height="96" viewBox="0 0 48 96"><g transform="translate(-128)"><g transform="translate(128)"><path d="M168,54.111V16a16,16,0,0,0-32,0V54.111a24,24,0,1,0,32,0ZM152,88a16,16,0,0,1-10.665-27.928L144,57.687V16a8,8,0,1,1,16,0V57.687l2.665,2.385A16,16,0,0,1,152,88Z" transform="translate(-128)" fill="#fff"/></g><g transform="translate(148 32)"><rect width="8" height="48" fill="#fff"/></g><g transform="translate(140 60)"><circle cx="12" cy="12" r="12" fill="#fff"/></g></g></svg>