<svg xmlns="http://www.w3.org/2000/svg" width="61.677" height="42.947" viewBox="0 0 61.677 42.947"><g transform="translate(0 -82.176)"><g transform="translate(20.913 92.913)"><g transform="translate(0 0)"><path d="M166.342,156.416c-5.476,0-9.926,4.813-9.926,10.737s4.449,10.737,9.926,10.737,9.926-4.813,9.926-10.737S171.818,156.416,166.342,156.416Zm-.753,7.553a2.378,2.378,0,0,0-2.259,2.444h-3.286a5.851,5.851,0,0,1,5.545-6Z" transform="translate(-156.416 -156.416)" fill="#fff"/></g></g><g transform="translate(0 82.176)"><g transform="translate(0 0)"><path d="M60.958,101.428C57.6,96.911,45.624,82.176,30.838,82.176S4.073,96.911.719,101.428a3.792,3.792,0,0,0,0,4.443c3.354,4.517,15.334,19.252,30.12,19.252s26.765-14.735,30.12-19.252A3.792,3.792,0,0,0,60.958,101.428ZM30.838,119.2c-7.941,0-14.375-6.96-14.375-15.55S22.9,88.1,30.838,88.1s14.375,6.96,14.375,15.55S38.779,119.2,30.838,119.2Z" transform="translate(0 -82.176)" fill="#fff"/></g></g></g></svg>