<svg xmlns="http://www.w3.org/2000/svg" width="63" height="57.154" viewBox="0 0 63 57.154"><g transform="translate(0 -32)"><g transform="translate(0 35.008)"><path d="M50.674,48c-6.8,0-12.326,6.073-12.326,13.536a1.376,1.376,0,1,0,2.739,0c0-5.806,4.3-10.528,9.587-10.528s9.587,4.723,9.587,10.528-4.3,10.528-9.587,10.528H1.37a1.511,1.511,0,0,0,0,3.008h49.3C57.471,75.073,63,69,63,61.536S57.471,48,50.674,48Z" transform="translate(0 -48)" fill="#fff"/></g><g transform="translate(0 32)"><g transform="translate(0 0)"><path d="M24.652,32c-5.287,0-9.587,4.723-9.587,10.528a1.376,1.376,0,1,0,2.739,0c0-4.147,3.072-7.52,6.848-7.52s6.848,3.374,6.848,7.52-3.072,7.52-6.848,7.52H1.37a1.511,1.511,0,0,0,0,3.008H24.652c5.287,0,9.587-4.723,9.587-10.528S29.939,32,24.652,32Z" transform="translate(0 -32)" fill="#fff"/></g></g><g transform="translate(0 68.097)"><path d="M47.935,224H1.37a1.511,1.511,0,0,0,0,3.008H47.935c3.776,0,6.848,3.374,6.848,7.52s-3.072,7.52-6.848,7.52-6.848-3.374-6.848-7.52a1.376,1.376,0,1,0-2.739,0c0,5.806,4.3,10.529,9.587,10.529s9.587-4.723,9.587-10.529S53.22,224,47.935,224Z" transform="translate(0 -224)" fill="#fff"/></g></g></svg>