<svg xmlns="http://www.w3.org/2000/svg" width="96" height="78" viewBox="0 0 96 78"><g transform="translate(0 -48)"><path d="M116.065,75.962A16.772,16.772,0,0,0,94.74,59.8a20.874,20.874,0,0,0-39.652,8.107A19.529,19.529,0,0,0,40.346,90.923a.939.939,0,0,0,1.554.5A17.006,17.006,0,0,1,54.71,87a.922.922,0,0,0,.823-.386A20.336,20.336,0,0,1,92.095,94.3a.921.921,0,0,0,.555.671,19.285,19.285,0,0,1,10.678,10.85.934.934,0,0,0,.871.6h8.7a15.378,15.378,0,0,0,3.168-30.459Z" transform="translate(-32.44)" fill="#fff"/><path d="M54,255.6a14.343,14.343,0,0,0-28.009-5.439,11.039,11.039,0,0,0-15.838,12.008A9.916,9.916,0,1,0,9.928,282H52.95A13.219,13.219,0,0,0,54,255.6Z" transform="translate(0 -156)" fill="#fff"/></g></svg>