<svg xmlns="http://www.w3.org/2000/svg" width="96" height="90" viewBox="0 0 96 90">
  <g id="cloudy" transform="translate(0 -34.974)" opacity="0.9">
    <path id="Path_1" data-name="Path 1" d="M172.555,47.232a2.941,2.941,0,0,0,2.812-3.054v-6.15a2.822,2.822,0,1,0-5.625,0v6.15A2.941,2.941,0,0,0,172.555,47.232Z" transform="translate(-137.916)" fill="#fff"/>
    <path id="Path_2" data-name="Path 2" d="M9.124,136.455l-4.9-3.075A2.694,2.694,0,0,0,.377,134.5a3.2,3.2,0,0,0,1.029,4.172l4.9,3.075a2.694,2.694,0,0,0,3.842-1.118,3.2,3.2,0,0,0-1.029-4.172Z" transform="translate(0 -78.044)" fill="#fff"/>
    <path id="Path_3" data-name="Path 3" d="M6.321,314.278l-4.9,3.075c-2.482,1.556-1.463,5.7,1.409,5.7,1.274,0,1.6-.669,6.308-3.485a3.2,3.2,0,0,0,1.029-4.172,2.694,2.694,0,0,0-3.842-1.118Z" transform="translate(-0.009 -222.112)" fill="#fff"/>
    <path id="Path_4" data-name="Path 4" d="M317.541,141.744l4.9-3.075a3.2,3.2,0,0,0,1.029-4.172,2.694,2.694,0,0,0-3.842-1.118l-4.9,3.075a3.2,3.2,0,0,0-1.029,4.172A2.694,2.694,0,0,0,317.541,141.744Z" transform="translate(-254.574 -78.044)" fill="#fff"/>
    <path id="Path_5" data-name="Path 5" d="M81.558,158.137c2.087-12.418,11.3-21.93,22.8-23.568a21.782,21.782,0,0,0-17.119-8.6c-12.406,0-22.5,10.96-22.5,24.432A25.506,25.506,0,0,0,70.8,167.066,21.836,21.836,0,0,1,81.558,158.137Z" transform="translate(-52.604 -72.472)" fill="#fff"/>
    <path id="Path_6" data-name="Path 6" d="M161.815,211.285c-3.185-8.546-10.9-14.312-19.557-14.312-11.6,0-20.968,10.153-21.091,22.672-7.988.952-14.065,8.389-14.065,17.116,0,9.495,7.114,17.22,15.858,17.22,44.252-.05,41.831.123,42.6-.137,9.83-1.2,17.459-10.257,17.459-21.24,0-12.543-9.87-22.282-21.205-21.318Z" transform="translate(-87.02 -129.017)" fill="#fff"/>
  </g>
</svg>
