<svg xmlns="http://www.w3.org/2000/svg" width="84.375" height="96" viewBox="0 0 84.375 96"><g transform="translate(-31)"><path d="M153.813,421A2.811,2.811,0,0,0,151,423.813V435.25a2.813,2.813,0,0,0,5.625,0V423.813A2.811,2.811,0,0,0,153.813,421Z" transform="translate(-97.5 -342.063)" fill="#fff"/><path d="M273.813,421A2.811,2.811,0,0,0,271,423.813V435.25a2.813,2.813,0,0,0,5.625,0V423.813A2.811,2.811,0,0,0,273.813,421Z" transform="translate(-195 -342.063)" fill="#fff"/><path d="M393.813,421A2.811,2.811,0,0,0,391,423.813V435.25a2.813,2.813,0,0,0,5.625,0V423.813A2.811,2.811,0,0,0,393.813,421Z" transform="translate(-292.5 -342.063)" fill="#fff"/><path d="M33.813,421A2.811,2.811,0,0,0,31,423.813V435.25a2.813,2.813,0,0,0,5.625,0V423.813A2.811,2.811,0,0,0,33.813,421Z" transform="translate(0 -342.063)" fill="#fff"/><path d="M85.407,131.349a19.7,19.7,0,0,0-35.689,0A17.062,17.062,0,0,0,31,148.125a16.847,16.847,0,0,0,11.25,15.838v9.662a2.813,2.813,0,0,0,5.625,0V165H64.75v8.625a2.813,2.813,0,0,0,5.625,0V165H87.25v8.625a2.813,2.813,0,0,0,5.625,0v-9.661a16.847,16.847,0,0,0,11.25-15.839A17.066,17.066,0,0,0,85.407,131.349Z" transform="translate(0 -97.5)" fill="#fff"/><path d="M145.6,11.349a19.7,19.7,0,0,0-35.689,0,16.98,16.98,0,0,0-18.658,17.53,21.847,21.847,0,0,1,4.156-.7,25.337,25.337,0,0,1,42.193,0,22.982,22.982,0,0,1,19.31,13.9,16.867,16.867,0,0,0,7.406-13.956A17.074,17.074,0,0,0,145.6,11.349Z" transform="translate(-48.939)" fill="#fff"/></g></svg>