<svg xmlns="http://www.w3.org/2000/svg" width="96" height="90.556" viewBox="0 0 96 90.556"><g transform="translate(-0.001 -14.519)"><g transform="translate(0.001 14.519)"><path d="M94.052,83.91,60.1,21.409a14.079,14.079,0,0,0-24.211,0c-.019.033-.036.066-.055.1L2,83.811a14.073,14.073,0,0,0,12.1,21.263H81.7a14.224,14.224,0,0,0,12.425-7.115A13.875,13.875,0,0,0,94.052,83.91ZM42.366,43.137a5.631,5.631,0,0,1,11.261,0V65.66a5.631,5.631,0,1,1-11.261,0V43.137ZM48,93.813a8.446,8.446,0,1,1,8.446-8.446A8.455,8.455,0,0,1,48,93.813Z" transform="translate(-0.001 -14.519)" fill="#fff"/></g></g></svg>