<svg xmlns="http://www.w3.org/2000/svg" width="16" height="16" viewBox="0 0 16 16">
  <path id="humidity" d="M10.368,13.408a.625.625,0,0,1-.009.884A6.045,6.045,0,0,1,6.094,16a6.074,6.074,0,0,1-4.307-1.767A6.007,6.007,0,0,1,0,9.939V9.771C0,7.66,1.764,5.635,3.321,3.849,4.377,2.637,5.469,1.384,5.469.626a.625.625,0,1,1,1.25,0c0,.807,1.107,2.067,2.178,3.285.195.222.4.451.6.682a.625.625,0,1,1-.947.816c-.2-.226-.395-.453-.588-.673A19.807,19.807,0,0,1,6.083,2.392,20.9,20.9,0,0,1,4.263,4.67C2.851,6.291,1.25,8.128,1.25,9.771v.167A4.867,4.867,0,0,0,9.484,13.4a.625.625,0,0,1,.884.009Zm5.007-2.313a1.443,1.443,0,0,1-.9-.62,1.457,1.457,0,0,0-2.206,0,1.443,1.443,0,0,1-.9.62,1.443,1.443,0,0,1-.9-.62,1.457,1.457,0,0,0-2.206,0,1.443,1.443,0,0,1-.9.62,1.443,1.443,0,0,1-.9-.62,1.457,1.457,0,0,0-2.206,0,1.443,1.443,0,0,1-.9.62.625.625,0,0,0,0,1.25,2.491,2.491,0,0,0,1.857-1.069.211.211,0,0,1,.287,0,2.491,2.491,0,0,0,1.857,1.069,2.491,2.491,0,0,0,1.857-1.069.211.211,0,0,1,.287,0,2.491,2.491,0,0,0,1.857,1.069,2.491,2.491,0,0,0,1.857-1.069.211.211,0,0,1,.287,0,2.491,2.491,0,0,0,1.857,1.069.625.625,0,1,0,0-1.25ZM8.272,7.35a1.443,1.443,0,0,1-.9.62.625.625,0,0,0,0,1.25A2.491,2.491,0,0,0,9.232,8.151a.211.211,0,0,1,.287,0A2.491,2.491,0,0,0,11.375,9.22a2.491,2.491,0,0,0,1.857-1.069.211.211,0,0,1,.287,0A2.491,2.491,0,0,0,15.375,9.22a.625.625,0,1,0,0-1.25,1.442,1.442,0,0,1-.9-.62,1.457,1.457,0,0,0-2.206,0,1.443,1.443,0,0,1-.9.62,1.442,1.442,0,0,1-.9-.62,1.457,1.457,0,0,0-2.206,0Zm0,0" transform="translate(0 -0.001)" fill="#fff"/>
</svg>
