<svg xmlns="http://www.w3.org/2000/svg" width="96" height="96" viewBox="0 0 96 96"><path d="M21,63.187H79.5a16.5,16.5,0,0,0,3-32.726A18.02,18.02,0,0,0,59.366,12.937a22.5,22.5,0,0,0-42.851,8.73A21,21,0,0,0,21,63.187Z" fill="#fff"/><path d="M195.582,352c-8.084,0-8.381,3-15,3-6.594,0-6.919-3-15-3s-8.381,3-15,3c-6.52,0-6.977-3-15-3a19.9,19.9,0,0,0-7.363,1.229,3,3,0,1,0,2.074,5.63,14,14,0,0,1,5.289-.859c6.594,0,6.906,3,15,3s8.381-3,15-3c6.6,0,6.908,3,15,3s8.381-3,15-3a3,3,0,0,0,0-6Z" transform="translate(-102.582 -286)" fill="#fff"/><path d="M3,358c5.719,0,6.293,2.03,11.584,2.777a3,3,0,0,0,.84-5.941C11.348,354.26,9.936,352,3,352a3,3,0,0,0,0,6Z" transform="translate(0 -286)" fill="#fff"/><path d="M469.4,408a24.07,24.07,0,0,0-3.582.247,3,3,0,0,0,.887,5.934,18.156,18.156,0,0,1,2.7-.181,3,3,0,0,0,0-6Z" transform="translate(-376.397 -331.5)" fill="#fff"/><path d="M344.5,417.194a3,3,0,1,0,.1-6c-5.8.178-6.8-2.544-13.417-2.949a3,3,0,1,0-.366,5.989C336.04,414.553,336.979,417.194,344.5,417.194Z" transform="translate(-266.5 -331.694)" fill="#fff"/><path d="M3,414c6.594,0,6.916,3,15,3s8.381-3,15-3c6.594,0,6.906,3,15,3a21.048,21.048,0,0,0,5.806-.721,3,3,0,0,0-1.618-5.778A15.269,15.269,0,0,1,48,411c-6.52,0-6.977-3-15-3-8.084,0-8.381,3-15,3-6.594,0-6.916-3-15-3a3,3,0,0,0,0,6Z" transform="translate(0 -331.5)" fill="#fff"/><path d="M293.716,464c-8.084,0-8.381,3-15,3-6.594,0-6.919-3-15-3-7.59,0-8.441,2.676-13.81,2.969a3,3,0,1,0,.291,5.993c6.7-.356,7.347-2.962,13.519-2.962,6.6,0,6.908,3,15,3s8.381-3,15-3a3,3,0,0,0,0-6Z" transform="translate(-200.716 -377)" fill="#fff"/><path d="M38.311,464.592A21.7,21.7,0,0,0,33,464c-8.084,0-8.381,3-15,3-6.593,0-6.916-3-15-3a3,3,0,0,0,0,6c6.594,0,6.916,3,15,3s8.381-3,15-3a15.613,15.613,0,0,1,3.854.413,3,3,0,1,0,1.457-5.82Z" transform="translate(0 -377)" fill="#fff"/></svg>