<svg xmlns="http://www.w3.org/2000/svg" width="96" height="96" viewBox="0 0 96 96"><path d="M203,378.5a3,3,0,0,1-2.493-4.664l3-4.5a3,3,0,1,1,4.992,3.328l-3,4.5A3,3,0,0,1,203,378.5Z" transform="translate(-162.499 -298.999)" fill="#fff"/><path d="M67,378.5a3,3,0,0,1-2.493-4.664l3-4.5a3,3,0,0,1,4.992,3.328l-3,4.5A3,3,0,0,1,67,378.5Z" transform="translate(-51.999 -298.999)" fill="#fff"/><path d="M355,378.5a3,3,0,0,1-2.493-4.664l3-4.5a3,3,0,0,1,4.992,3.328l-3,4.5A3,3,0,0,1,355,378.5Z" transform="translate(-285.999 -298.999)" fill="#fff"/><path d="M203,466.5a3,3,0,0,1-2.493-4.664l3-4.5a3,3,0,0,1,4.992,3.328l-3,4.5A3,3,0,0,1,203,466.5Z" transform="translate(-162.499 -370.499)" fill="#fff"/><path d="M275,410.5a3,3,0,0,1-2.493-4.664l3-4.5a3,3,0,1,1,4.992,3.328l-3,4.5A3,3,0,0,1,275,410.5Z" transform="translate(-220.999 -324.999)" fill="#fff"/><path d="M347,466.5a3,3,0,0,1-2.493-4.664l3-4.5a3,3,0,0,1,4.992,3.328l-3,4.5A3,3,0,0,1,347,466.5Z" transform="translate(-279.499 -370.499)" fill="#fff"/><path d="M131,410.5a3,3,0,0,1-2.493-4.664l3-4.5a3,3,0,1,1,4.992,3.328l-3,4.5A3,3,0,0,1,131,410.5Z" transform="translate(-103.999 -324.999)" fill="#fff"/><path d="M59,466.5a3,3,0,0,1-2.493-4.664l3-4.5a3,3,0,0,1,4.992,3.328l-3,4.5A3,3,0,0,1,59,466.5Z" transform="translate(-45.499 -370.499)" fill="#fff"/><path d="M75,21a21.155,21.155,0,0,0-3.158.236,24,24,0,0,0-47.684,0A21,21,0,1,0,21,63H75a21,21,0,0,0,0-42Zm1.01,35.967Q75.489,57,74.975,57a.93.93,0,0,1-.434-1.752,15.006,15.006,0,0,0,0-26.5A.929.929,0,0,1,74.961,27H75a15,15,0,0,1,1.01,29.967Z" transform="translate(0 0)" fill="#fff"/></svg>