<svg xmlns="http://www.w3.org/2000/svg" width="96" height="95.942" viewBox="0 0 96 95.942"><g transform="translate(0 -0.156)"><g transform="translate(65.784 0.156)"><path d="M379.618,17.011a2.978,2.978,0,0,0-3.126-.06,8.77,8.77,0,0,1-4.428,1.146,9.011,9.011,0,0,1-9-9,8.732,8.732,0,0,1,1.146-4.422A3,3,0,0,0,361.336.169a17.81,17.81,0,0,0-10.488,4.752,35.982,35.982,0,0,1,16.3,19.524,23.8,23.8,0,0,1,10.29,4.536,17.922,17.922,0,0,0,3.552-9.162A2.986,2.986,0,0,0,379.618,17.011Z" transform="translate(-350.848 -0.156)" fill="#fff"/></g><g transform="translate(0 6.097)"><path d="M78,55.845c-.192,0-.384,0-.588.006a30.016,30.016,0,0,0-56.916-6A21,21,0,0,0,21,91.845H78a18,18,0,1,0,0-36Z" transform="translate(0 -31.845)" fill="#fff"/></g><g transform="translate(18 72.178)"><path d="M107.466,385.492a3.11,3.11,0,0,0-4.932,0C100.566,388.33,96,395.356,96,399.2a9,9,0,0,0,18,0C114,395.356,109.434,388.33,107.466,385.492Z" transform="translate(-96 -384.277)" fill="#fff"/></g><g transform="translate(52.206 72.097)"><path d="M298.52,397.747l-3.3-1.9,3.3-1.9a3,3,0,0,0-3.006-5.2l-3.288,1.9v-3.8a3,3,0,0,0-6,0v3.8l-3.294-1.9a3,3,0,0,0-3,5.2l3.3,1.9-3.3,1.9a3,3,0,0,0,1.5,5.6,2.964,2.964,0,0,0,1.5-.4l3.294-1.9v3.8a3,3,0,0,0,6,0v-3.8l3.294,1.9a2.964,2.964,0,0,0,1.5.4,3,3,0,0,0,1.5-5.6Z" transform="translate(-278.432 -383.845)" fill="#fff"/></g></g></svg>