<svg xmlns="http://www.w3.org/2000/svg" width="93.093" height="96" viewBox="0 0 93.093 96"><g transform="translate(-38.818 -24.014)"><path d="M217.227,362.229l1.627.436a1.684,1.684,0,1,0,.872-3.254l-.674-.18.18-.674a1.684,1.684,0,1,0-3.254-.872l-.436,1.627-3.179,1.836-2.442-1.409v-3.672l1.191-1.191a1.684,1.684,0,0,0-2.382-2.382l-.493.493-.493-.493a1.684,1.684,0,0,0-2.382,2.382l1.191,1.191v3.672l-2.442,1.409-3.179-1.836-.436-1.627a1.684,1.684,0,1,0-3.254.872l.18.674-.674.18a1.684,1.684,0,0,0,.872,3.254l1.627-.436,3.179,1.836v2.82l-3.179,1.836-1.627-.436a1.684,1.684,0,1,0-.872,3.254l.674.18-.18.674a1.684,1.684,0,1,0,3.254.871l.436-1.627,3.179-1.836,2.442,1.41v3.672l-1.191,1.191a1.684,1.684,0,0,0,2.382,2.382l.493-.494.493.493a1.684,1.684,0,0,0,2.382-2.382l-1.191-1.191V371.21l2.442-1.41,3.179,1.836.436,1.627a1.684,1.684,0,1,0,3.254-.872l-.18-.674.674-.18a1.684,1.684,0,1,0-.872-3.254l-1.627.436-3.179-1.836v-2.819Z" transform="translate(-123.696 -258.934)" fill="#fff"/><path d="M60.583,258.227l1.627.436a1.684,1.684,0,0,0,.872-3.254l-.674-.18.181-.674a1.684,1.684,0,1,0-3.254-.872L58.9,255.31l-3.179,1.836-2.442-1.409v-3.672l1.191-1.191a1.684,1.684,0,1,0-2.382-2.382l-.494.494-.493-.493a1.684,1.684,0,1,0-2.382,2.382l1.191,1.191v3.672l-2.442,1.41-3.179-1.836-.435-1.627a1.684,1.684,0,0,0-3.254.872l.18.674-.674.18a1.684,1.684,0,0,0,.872,3.254l1.627-.436,3.179,1.836v2.82L42.6,264.719l-1.627-.436a1.684,1.684,0,1,0-.872,3.253l.674.18-.18.674a1.684,1.684,0,0,0,3.254.872l.436-1.627,3.179-1.836,2.442,1.41v3.672l-1.191,1.191a1.684,1.684,0,1,0,2.382,2.382l.493-.493.493.493a1.684,1.684,0,1,0,2.382-2.382l-1.191-1.191v-3.672l2.442-1.409,3.179,1.836.436,1.627a1.684,1.684,0,1,0,3.254-.872l-.181-.674.674-.18a1.684,1.684,0,1,0-.872-3.254l-1.627.436L57.4,262.882v-2.819Z" transform="translate(0 -176.828)" fill="#fff"/><path d="M372.736,352.985l-.493-.493a1.684,1.684,0,1,0-2.382,2.382l1.191,1.191v3.672l-2.442,1.409-3.179-1.836-.436-1.627a1.684,1.684,0,0,0-3.254.872l.181.674-.674.18a1.684,1.684,0,1,0,.872,3.254l1.627-.436,3.179,1.836v2.82l-3.179,1.836-1.627-.436a1.684,1.684,0,1,0-.872,3.254l.674.18-.181.674a1.684,1.684,0,0,0,3.254.871l.436-1.627,3.179-1.836,2.442,1.409v3.672l-1.191,1.191a1.684,1.684,0,1,0,2.382,2.382l.493-.493.493.493a1.684,1.684,0,1,0,2.382-2.382l-1.191-1.191v-3.672l2.442-1.41,3.179,1.836.436,1.627a1.684,1.684,0,0,0,3.254-.872l-.18-.674.674-.18a1.684,1.684,0,1,0-.872-3.254l-1.627.436-3.179-1.836v-2.819l3.179-1.836,1.627.436a1.684,1.684,0,1,0,.872-3.254l-.674-.18.18-.674a1.684,1.684,0,1,0-3.254-.873l-.436,1.627-3.179,1.836-2.442-1.409v-3.672l1.191-1.191a1.684,1.684,0,1,0-2.382-2.382l-.493.493" transform="translate(-253.561 -258.933)" fill="#fff"/><path d="M100.618,67.8h45.475a12.632,12.632,0,0,0,2-25.1A10.115,10.115,0,0,0,136.5,36a15.158,15.158,0,0,0-29.6-.192c-.126-.005-.253-.009-.379-.009a8.421,8.421,0,0,0-8.293,6.966,12.632,12.632,0,0,0,2.4,25.035Zm9.263-11.79h11.79a1.684,1.684,0,1,1,0,3.369h-11.79a1.684,1.684,0,1,1,0-3.369Zm-11.79,0h5.053a1.684,1.684,0,1,1,0,3.369H98.091a1.684,1.684,0,1,1,0-3.369Z" transform="translate(-38.813)" fill="#fff"/><circle cx="3.369" cy="3.369" r="3.369" transform="translate(81.173 74.539)" fill="#fff"/><circle cx="3.369" cy="3.369" r="3.369" transform="translate(39.067 101.487)" fill="#fff"/><circle cx="3.369" cy="3.369" r="3.369" transform="translate(118.227 74.539)" fill="#fff"/><circle cx="5.053" cy="5.053" r="5.053" transform="translate(54.225 108.224)" fill="#fff"/><circle cx="5.053" cy="5.053" r="5.053" transform="translate(99.7 82.96)" fill="#fff"/></g></svg>