<svg xmlns="http://www.w3.org/2000/svg" width="96" height="96" viewBox="0 0 96 96">
  <path id="sunny" d="M48,22.125A25.875,25.875,0,1,0,73.875,48,25.9,25.9,0,0,0,48,22.125Zm0,44.25c-10.132,0,0,10.132,0,0s-10.132,0,0,0,0-10.132,0,0S58.132,66.375,48,66.375Zm-3.75-55.25V3.75a3.75,3.75,0,1,1,7.5,0v7.375a3.75,3.75,0,1,1-7.5,0Zm7.5,73.751V92.25a3.75,3.75,0,1,1-7.5,0V84.875a3.75,3.75,0,1,1,7.5,0ZM96,48a3.75,3.75,0,0,1-3.75,3.75H84.875a3.75,3.75,0,0,1,0-7.5H92.25A3.75,3.75,0,0,1,96,48ZM11.125,51.75H3.75a3.75,3.75,0,0,1,0-7.5h7.375a3.75,3.75,0,0,1,0,7.5Zm60.3-27.173a3.75,3.75,0,0,1,0-5.3l5.215-5.215a3.75,3.75,0,0,1,5.3,5.3l-5.215,5.215A3.75,3.75,0,0,1,71.423,24.577ZM24.577,71.423a3.75,3.75,0,0,1,0,5.3l-5.215,5.215a3.75,3.75,0,0,1-5.3-5.3l5.215-5.215A3.75,3.75,0,0,1,24.577,71.423Zm57.364,5.215a3.75,3.75,0,0,1-5.3,5.3l-5.215-5.215a3.75,3.75,0,0,1,5.3-5.3ZM14.059,19.362a3.75,3.75,0,0,1,5.3-5.3l5.215,5.215a3.75,3.75,0,0,1-5.3,5.3Zm0,0" fill="#fff"/>
</svg>
