<svg id="thunderstorm" xmlns="http://www.w3.org/2000/svg" width="96" height="96" viewBox="0 0 96 96">
  <g id="Group_14" data-name="Group 14">
    <g id="Group_13" data-name="Group 13">
      <path id="Path_10" data-name="Path 10" d="M96.221,362.861a1.981,1.981,0,0,0-2.1.205L87.9,367.822a5.9,5.9,0,0,0-2.57,4.832,6,6,0,0,0,12,0v-8A2,2,0,0,0,96.221,362.861Z" transform="translate(-69.334 -294.654)" fill="#fff"/>
      <path id="Path_11" data-name="Path 11" d="M213.554,426.864a1.985,1.985,0,0,0-2.1.205l-6.215,4.756a5.891,5.891,0,0,0-2.57,4.832,6,6,0,0,0,12,0v-8A2,2,0,0,0,213.554,426.864Z" transform="translate(-164.667 -346.657)" fill="#fff"/>
      <path id="Path_12" data-name="Path 12" d="M330.887,362.861a1.981,1.981,0,0,0-2.1.205l-6.215,4.756a5.9,5.9,0,0,0-2.57,4.832,6,6,0,0,0,12,0v-8A2,2,0,0,0,330.887,362.861Z" transform="translate(-260 -294.654)" fill="#fff"/>
      <path id="Path_13" data-name="Path 13" d="M74,20a22.253,22.253,0,0,0-13.187,4.395,2.05,2.05,0,0,1-2.8-.408,2.006,2.006,0,0,1,.414-2.8,26.438,26.438,0,0,1,10.4-4.584,2,2,0,0,0,1.227-3.113,31.951,31.951,0,0,0-56.258,7.976,2,2,0,0,0,.32,1.891,1.962,1.962,0,0,0,1.766.752C16.574,24.039,17.285,24,18,24a2,2,0,1,1,0,4,18,18,0,1,0,0,36h5.125a2,2,0,0,0,1.73-3,.866.866,0,0,0-.187-.252h0a5.98,5.98,0,0,1,.453-6.232l20-28A6.114,6.114,0,0,1,52.387,24.5a6.022,6.022,0,0,1,3.5,6.68L53.8,41.607A2,2,0,0,0,55.758,44H58a6,6,0,0,1,4.883,9.488l-5.25,7.35A2,2,0,0,0,59.261,64H74a22,22,0,1,0,0-44Z" fill="#fff"/>
      <path id="Path_14" data-name="Path 14" d="M160.963,200.511l20-28a2,2,0,0,0-1.629-3.162h-9.559l3.52-17.607a2,2,0,0,0-3.59-1.555l-20,28a2,2,0,0,0,1.629,3.162h9.559l-3.52,17.607a2,2,0,0,0,3.59,1.555Z" transform="translate(-121.334 -121.349)" fill="#fff"/>
    </g>
  </g>
</svg>
